<?xml version="1.0" standalone="no"?>
<!DOCTYPE svg PUBLIC "-//W3C//DTD SVG 20010904//EN"
 "http://www.w3.org/TR/2001/REC-SVG-20010904/DTD/svg10.dtd">
<svg version="1.0" xmlns="http://www.w3.org/2000/svg"
 width="512.000000pt" height="512.000000pt" viewBox="0 0 512.000000 512.000000"
 preserveAspectRatio="xMidYMid meet">

<g transform="translate(0.000000,512.000000) scale(0.100000,-0.100000)"
fill="currentColor" stroke="none">
<path d="M2530 4579 c-455 -53 -856 -243 -1189 -564 -246 -237 -418 -511 -524
-834 l-44 -133 -47 86 c-26 47 -52 86 -57 86 -11 0 -277 -146 -293 -160 -7 -7
357 -682 384 -713 5 -6 696 368 719 389 5 4 -162 304 -170 304 -3 0 -48 -23
-98 -51 -51 -28 -94 -50 -96 -48 -2 2 16 63 39 134 90 273 223 483 438 691
567 549 1426 626 2084 186 365 -245 620 -623 716 -1065 19 -89 22 -131 22
-327 0 -196 -3 -238 -22 -327 -98 -450 -361 -834 -737 -1079 -628 -408 -1441
-349 -2014 146 l-83 72 -125 -123 -124 -124 63 -58 c536 -495 1309 -663 2003
-436 317 104 649 318 865 559 208 232 342 461 435 745 136 409 135 841 -1
1254 -250 762 -925 1305 -1726 1391 -113 12 -310 11 -418 -1z"/>
<path d="M2214 3236 l-34 -34 0 -642 0 -642 34 -34 c67 -67 52 -73 643 279
386 229 529 319 539 339 17 33 18 78 2 113 -13 30 -9 27 -609 384 -405 241
-460 271 -498 271 -36 0 -49 -6 -77 -34z"/>
</g>
</svg>
