<svg width="100" height="100" viewBox="0 0 100 100" fill="none" xmlns="http://www.w3.org/2000/svg">
<path fill-rule="evenodd" clip-rule="evenodd" d="M30.9859 6H0V94H30.9859V6ZM22.5352 14.5161H8.4507V34.3871H22.5352V14.5161ZM8.4507 40.0645H22.5352V59.9355H8.4507V40.0645ZM22.5352 68.4516H8.4507V85.4839H22.5352V68.4516Z" fill="currentColor"/>
<path fill-rule="evenodd" clip-rule="evenodd" d="M100 6H69.0141V94H100V6ZM91.5493 14.5161H77.4648V34.3871H91.5493V14.5161ZM77.4648 40.0645H91.5493V59.9355H77.4648V40.0645ZM91.5493 68.4516H77.4648V85.4839H91.5493V68.4516Z" fill="currentColor"/>
<path d="M30.9859 16.4182H69.0141V22.9472H30.9859V16.4182Z" fill="currentColor"/>
<path d="M30.9859 77.6774H69.0141V84.2064H30.9859V77.6774Z" fill="currentColor"/>
</svg>
