<svg width="100" height="100" viewBox="0 0 100 100" fill="none" xmlns="http://www.w3.org/2000/svg">
<path fill-rule="evenodd" clip-rule="evenodd" d="M42.4561 84.9113C65.904 84.9113 84.9122 65.9033 84.9122 42.4556C84.9122 19.008 65.904 0 42.4561 0C19.0082 0 0 19.008 0 42.4556C0 65.9033 19.0082 84.9113 42.4561 84.9113ZM42.4561 76.4202C61.2144 76.4202 76.421 61.2138 76.421 42.4557C76.421 23.6976 61.2144 8.49115 42.4561 8.49115C23.6978 8.49115 8.49124 23.6976 8.49124 42.4557C8.49124 61.2138 23.6978 76.4202 42.4561 76.4202Z" fill="currentColor"/>
<rect width="29.9402" height="8.49118" rx="1" transform="matrix(0.707111 0.707103 -0.707111 0.707103 78.8289 72.825)" fill="currentColor"/>
</svg>
