<svg width="100" height="100" viewBox="0 0 100 100" fill="none" xmlns="http://www.w3.org/2000/svg">
<path fill-rule="evenodd" clip-rule="evenodd" d="M35 26.3023L80 48.5715L35 70.8408V26.3023ZM44.2857 42.4119L57.1428 48.5978L44.2857 54.7837V42.4119Z" fill="currentColor"/>
<path d="M80.2802 89.7916C71.8761 96.1967 61.3822 100 50 100C22.3858 100 0 77.6142 0 50C0 22.3858 22.3858 0 50 0C77.6142 0 100 22.3858 100 50C100 61.9443 95.8118 72.9103 88.8239 81.5098L80.9032 75.3985C86.5871 68.4907 90 59.6439 90 50C90 27.9086 72.0914 10 50 10C27.9086 10 10 27.9086 10 50C10 72.0914 27.9086 90 50 90C59.1766 90 67.6316 86.9098 74.3809 81.7133L80.2802 89.7916Z" fill="currentColor"/>
</svg>