<svg width="100" height="100" viewBox="0 0 100 100" fill="none" xmlns="http://www.w3.org/2000/svg">
<path fill-rule="evenodd" clip-rule="evenodd" d="M69.6849 50C69.6849 39.4753 60.9101 30.8823 49.9895 30.8823C39.0688 30.8823 30.294 39.4753 30.294 50C30.294 60.5247 39.0688 69.1176 49.9895 69.1176C60.9101 69.1176 69.6849 60.5247 69.6849 50ZM62.0431 50C62.0431 56.512 56.5837 61.7647 49.9895 61.7647C43.3953 61.7647 37.9359 56.512 37.9359 50C37.9359 43.488 43.3952 38.2353 49.9895 38.2353C56.5837 38.2353 62.0431 43.488 62.0431 50Z" fill="currentColor"/>
<path fill-rule="evenodd" clip-rule="evenodd" d="M12.1322 54.8567L12.2405 55.6999L0.40417 64.7031C0.00935536 65.0081 -0.134617 65.579 0.148896 66.0984L10.7208 83.8884L10.7296 83.9035C10.9213 84.235 11.3125 84.4559 11.7319 84.4559C11.8773 84.4559 12.0304 84.4342 12.1953 84.3843L26.0758 78.962L26.7269 79.437C29.4022 81.3886 32.2579 83.0714 35.3474 84.3031L36.1342 84.6167L38.2685 99.0943L38.2722 99.1214C38.328 99.5554 38.7531 100 39.4065 100H60.5725C61.2259 100 61.651 99.5554 61.7067 99.1214L61.7105 99.0943L63.8448 84.6167L64.6315 84.3031C67.7314 83.0673 70.5824 81.4343 73.2377 79.4475L73.8923 78.9577L87.8279 84.4016C87.8909 84.4259 88.0223 84.4559 88.1942 84.4559C88.6828 84.4559 89.0652 84.2219 89.2494 83.9035L89.2582 83.8884L99.8301 66.0984C100.114 65.5789 99.9718 65.0094 99.5767 64.7046L87.7384 55.6999L87.8468 54.8567C88.0545 53.2405 88.2052 51.6107 88.2052 50C88.2052 48.3893 88.0545 46.7595 87.8468 45.1433L87.7384 44.3001L99.5748 35.2969C100.016 34.9563 100.125 34.3882 99.8486 33.9326L99.8412 33.9204L89.2582 16.1116L89.2494 16.0965C89.0577 15.765 88.6665 15.5441 88.2471 15.5441C88.1017 15.5441 87.9486 15.5657 87.7837 15.6157L73.9032 21.038L73.252 20.563C70.5768 18.6114 67.7211 16.9286 64.6315 15.6969L63.8448 15.3833L61.7105 0.905651L61.7067 0.878616C61.651 0.444628 61.2259 0 60.5725 0H39.4065C38.753 0 38.328 0.444626 38.2722 0.878616L38.2685 0.905651L36.1342 15.3833L35.3474 15.6969C32.2476 16.9327 29.3966 18.5656 26.7412 20.5525L26.0866 21.0423L12.1511 15.5984C12.0879 15.5741 11.9564 15.5441 11.7848 15.5441C11.2961 15.5441 10.9137 15.7781 10.7296 16.0965L10.7208 16.1116L0.148896 33.9016C-0.134561 34.4208 0.00704408 34.99 0.401679 35.295L0.40417 35.2969L12.2405 44.3001L12.1322 45.1433C11.9243 46.7609 11.7738 48.3387 11.7738 50C11.7738 51.6613 11.9243 53.2391 12.1322 54.8567ZM27.3297 29.3896L31.4877 26.2784L31.502 26.2678C33.7108 24.6565 35.9317 23.413 38.3227 22.4395L38.3375 22.4335L43.1538 20.5331L45.0652 7.35294H54.9571L56.2057 15.5506L56.931 20.5331L61.7473 22.4335L61.7575 22.4376C64.0585 23.3656 66.3321 24.665 68.6842 26.3676L72.8015 29.3935L77.5497 27.5283L85.4341 24.4485L90.4481 32.879L83.6904 37.9915L83.6841 37.9963L79.6531 41.0802L80.287 46.0568L80.2911 46.0923C80.4491 47.6296 80.5634 48.8847 80.5634 50C80.5634 51.1142 80.4492 52.37 80.2916 53.9544L80.287 53.9946L79.6531 58.9713L83.6841 62.0552L83.6904 62.06L90.4481 67.1725L85.4341 75.6029L77.5523 72.5242L72.7022 70.6104L68.5442 73.7216L68.5298 73.7322C66.3211 75.3435 64.1002 76.587 61.7092 77.5605L61.6943 77.5665L56.8781 79.4669L54.9667 92.6471H45.0218L43.7732 84.4494L43.048 79.4669L38.2317 77.5665L38.2214 77.5624C35.9205 76.6344 33.6469 75.335 31.2947 73.6324L27.1774 70.6065L22.4293 72.4717L14.5448 75.5515L9.53083 67.121L16.2885 62.0085L16.2948 62.0037L20.3258 58.9198L19.6919 53.9432L19.6879 53.9077C19.53 52.3726 19.4156 51.1676 19.4156 50C19.4156 48.856 19.4726 47.7113 19.6925 46.0525L19.6929 46.0493L20.3258 41.0802L16.2885 37.9915L9.59062 32.816L14.5978 24.3971L22.4796 27.4758L27.3297 29.3896Z" fill="currentColor"/>
</svg>
