<svg width="100" height="100" viewBox="0 0 100 100" fill="none" xmlns="http://www.w3.org/2000/svg">
<path fill-rule="evenodd" clip-rule="evenodd" d="M99.3 88.0353C99.3 68.4071 66.7129 61.5977 50.05 61.5977C33.3871 61.5977 0.8 68.4071 0.8 87.9571V99.9999H99.3V88.0353ZM7.33043 86.7811C7.35049 86.3344 7.43544 85.9038 7.57655 85.4975C8.76412 80.4703 13.6269 75.9231 21.9247 72.2282C31.2277 68.0856 42.5923 67.7574 50.05 67.7574C57.5076 67.7574 68.8702 68.0856 78.1705 72.2358C86.356 75.8885 91.2108 80.3818 92.4767 85.3692C92.6458 85.8127 92.7474 86.2871 92.7696 86.7811H92.8088L92.8102 93.8181H7.28975V91.1084H7.28254V86.7811H7.33043ZM7.91906 78.127C6.45752 79.8508 5.37388 81.7048 4.72748 83.6902H4.71919C5.3625 81.7086 6.45098 79.8534 7.91906 78.127ZM95.3534 83.6902H95.3619C94.7103 81.7033 93.6146 79.8444 92.1408 78.1155C93.6077 79.8416 94.6984 81.6993 95.3534 83.6902Z" fill="currentColor"/>
<path fill-rule="evenodd" clip-rule="evenodd" d="M50.05 49.2781C63.65 49.2781 74.675 38.2468 74.675 24.639C74.675 11.0313 63.65 0 50.05 0C36.45 0 25.425 11.0313 25.425 24.639C25.425 38.2468 36.45 49.2781 50.05 49.2781ZM50.29 42C59.9495 42 67.7801 34.165 67.7801 24.5C67.7801 14.835 59.9495 7 50.29 7C40.6306 7 32.8 14.835 32.8 24.5C32.8 34.165 40.6306 42 50.29 42Z" fill="currentColor"/>
</svg>
